<svg width="694" height="30" viewBox="0 0 694 30" fill="none" xmlns="http://www.w3.org/2000/svg">
<path fill-rule="evenodd" clip-rule="evenodd" d="M674.366 6.61612C674.854 6.12796 675.646 6.12796 676.134 6.61612L683.634 14.1161C684.122 14.6043 684.122 15.3957 683.634 15.8839L676.134 23.3839C675.646 23.872 674.854 23.872 674.366 23.3839C673.878 22.8957 673.878 22.1043 674.366 21.6161L680.982 15L674.366 8.38388C673.878 7.89573 673.878 7.10427 674.366 6.61612Z" fill="white" fill-opacity="0.8"/>
<path fill-rule="evenodd" clip-rule="evenodd" d="M19.6339 6.61612C20.122 7.10427 20.122 7.89573 19.6339 8.38388L13.0178 15L19.6339 21.6161C20.122 22.1043 20.122 22.8957 19.6339 23.3839C19.1457 23.872 18.3543 23.872 17.8661 23.3839L10.3661 15.8839C9.87796 15.3957 9.87796 14.6043 10.3661 14.1161L17.8661 6.61612C18.3543 6.12796 19.1457 6.12796 19.6339 6.61612Z" fill="white" fill-opacity="0.8"/>
</svg>
