<svg width="18" height="18" viewBox="0 0 18 18" fill="none" xmlns="http://www.w3.org/2000/svg">
<path fill-rule="evenodd" clip-rule="evenodd" d="M0.75 9C0.75 4.44365 4.44365 0.75 9 0.75C13.5563 0.75 17.25 4.44365 17.25 9C17.25 13.5563 13.5563 17.25 9 17.25C4.44365 17.25 0.75 13.5563 0.75 9Z" fill="#333333"/>
<path fill-rule="evenodd" clip-rule="evenodd" d="M12.983 6.03223C13.2759 6.32512 13.2759 6.79999 12.983 7.09289L8.32769 11.9679C8.0348 12.2608 7.55993 12.2608 7.26703 11.9679L5.01703 9.71789C4.72414 9.425 4.72414 8.95012 5.01703 8.65723C5.30993 8.36433 5.7848 8.36433 6.07769 8.65723L7.79736 10.3769L11.9224 6.03223C12.2153 5.73933 12.6901 5.73933 12.983 6.03223Z" fill="white"/>
</svg>
