<svg width="21" height="27" viewBox="0 0 21 27" fill="none" xmlns="http://www.w3.org/2000/svg">
<g clip-path="url(#clip0)">
<path d="M10.2317 26.8338C8.87877 26.8338 7.58436 26.4886 6.3485 25.7981C5.11263 25.1076 4.04914 24.1784 3.15801 23.0105C2.26689 21.8425 1.55789 20.4487 1.03103 18.829C0.504157 17.2093 0.240723 15.5128 0.240723 13.7397C0.240723 11.9665 0.504157 10.2701 1.03103 8.65034C1.55789 7.03062 2.26689 5.63681 3.15801 4.4689C4.04914 3.301 5.11263 2.37179 6.3485 1.68128C7.58436 0.990764 8.87877 0.645508 10.2317 0.645508C11.5847 0.645508 12.8791 0.990764 14.1149 1.68128C15.3508 2.37179 16.4143 3.301 17.3054 4.4689C18.1965 5.63681 18.9055 7.03062 19.4324 8.65034C19.9593 10.2701 20.2227 11.9665 20.2227 13.7397C20.2227 15.5128 19.9593 17.2093 19.4324 18.829C18.9055 20.4487 18.1965 21.8425 17.3054 23.0105C16.4143 24.1784 15.3508 25.1076 14.1149 25.7981C12.8791 26.4886 11.5847 26.8338 10.2317 26.8338ZM15.2272 8.82936C15.2272 8.38607 15.1069 8.00245 14.8662 7.67851C14.6255 7.35457 14.3296 7.19259 13.9783 7.19259H6.48509C6.14686 7.19259 5.85415 7.35457 5.60698 7.67851C5.3598 8.00245 5.23622 8.38607 5.23622 8.82936V10.4661H7.46077C8.2153 9.37496 9.13895 8.82936 10.2317 8.82936C11.3245 8.82936 12.2481 9.37496 13.0027 10.4661H15.2272V8.82936ZM7.73397 13.7397C7.73397 14.6433 7.97789 15.4148 8.46573 16.0542C8.95357 16.6935 9.54223 17.0132 10.2317 17.0132C10.9212 17.0132 11.5099 16.6935 11.9977 16.0542C12.4855 15.4148 12.7295 14.6433 12.7295 13.7397C12.7295 12.836 12.4855 12.0645 11.9977 11.4252C11.5099 10.7858 10.9212 10.4661 10.2317 10.4661C9.54223 10.4661 8.95357 10.7858 8.46573 11.4252C7.97789 12.0645 7.73397 12.836 7.73397 13.7397ZM15.2272 12.1029H13.7442C13.9003 12.6655 13.9783 13.2111 13.9783 13.7397C13.9783 15.1037 13.6141 16.263 12.8856 17.2178C12.1571 18.1726 11.2724 18.65 10.2317 18.65C9.19098 18.65 8.30637 18.1726 7.57786 17.2178C6.84935 16.263 6.48509 15.1037 6.48509 13.7397C6.48509 13.2111 6.56315 12.6655 6.71926 12.1029H5.23622V18.65C5.23622 19.1103 5.35655 19.4982 5.59722 19.8136C5.83789 20.1291 6.13385 20.2868 6.48509 20.2868H13.9783C14.3296 20.2868 14.6255 20.1291 14.8662 19.8136C15.1069 19.4982 15.2272 19.1103 15.2272 18.65V12.1029Z" fill="#BDBDBD"/>
</g>
<defs>
<clipPath id="clip0">
<rect width="19.982" height="26.1883" fill="white" transform="translate(0.240723 0.645508)"/>
</clipPath>
</defs>
</svg>
