<svg width="22" height="29" viewBox="0 0 22 29" fill="none" xmlns="http://www.w3.org/2000/svg">
<g clip-path="url(#clip0)">
<path d="M12.4408 14.1646L10.0846 12.7237C9.87899 12.5986 9.7101 12.7389 9.7101 13.0372V15.7513C9.7101 16.0496 9.87899 16.1898 10.0846 16.0647L12.4397 14.6238C12.6464 14.4974 12.6464 14.2911 12.4408 14.1646ZM10.7592 1.19531C5.19707 1.19531 0.688232 7.10458 0.688232 14.3942C0.688232 21.6839 5.19707 27.5932 10.7592 27.5932C16.3212 27.5932 20.8301 21.6839 20.8301 14.3942C20.8301 7.10458 16.3212 1.19531 10.7592 1.19531ZM10.7592 19.7563C5.6041 19.7563 5.51388 19.1472 5.51388 14.3942C5.51388 9.64125 5.6041 9.03217 10.7592 9.03217C15.9142 9.03217 16.0044 9.64125 16.0044 14.3942C16.0044 19.1472 15.9142 19.7563 10.7592 19.7563Z" fill="#BDBDBD"/>
</g>
<defs>
<clipPath id="clip0">
<rect width="20.9811" height="27.4978" fill="white" transform="translate(0.268555 0.645508)"/>
</clipPath>
</defs>
</svg>
