<svg width="23" height="23" viewBox="0 0 23 23" fill="none" xmlns="http://www.w3.org/2000/svg">
<path d="M19.1666 10.5405H21.0833C21.0833 5.6243 17.3717 1.9165 12.4487 1.9165V3.83317C16.3415 3.83317 19.1666 6.65355 19.1666 10.5405Z" fill="#BDBDBD"/>
<path d="M12.4584 7.66682C14.4737 7.66682 15.3334 8.52644 15.3334 10.5418H17.25C17.25 7.45119 15.549 5.75015 12.4584 5.75015V7.66682ZM15.7378 12.883C15.5536 12.7157 15.3116 12.6264 15.0629 12.6341C14.8142 12.6418 14.5782 12.7458 14.4047 12.9242L12.1114 15.2827C11.5594 15.1773 10.4497 14.8313 9.30736 13.6919C8.16503 12.5486 7.81907 11.4359 7.71653 10.8878L10.0731 8.59352C10.2517 8.42019 10.3559 8.18414 10.3636 7.93535C10.3713 7.68655 10.2819 7.44452 10.1143 7.26048L6.57323 3.36677C6.40557 3.18216 6.17254 3.07017 5.92363 3.0546C5.67473 3.03904 5.42956 3.12111 5.24019 3.2834L3.16061 5.06686C2.99492 5.23314 2.89603 5.45445 2.88269 5.68881C2.86832 5.9284 2.59423 11.6037 6.9949 16.0062C10.834 19.8444 15.6429 20.1252 16.9673 20.1252C17.1609 20.1252 17.2797 20.1194 17.3114 20.1175C17.5457 20.1044 17.7669 20.005 17.9324 19.8386L19.7149 17.7581C19.8773 17.5688 19.9595 17.3237 19.9441 17.0748C19.9287 16.8259 19.8169 16.5928 19.6324 16.425L15.7378 12.883Z" fill="#BDBDBD"/>
</svg>
